<?xml version="1.0" encoding="utf-8"?>
<!-- Generator: Adobe Illustrator 19.2.0, SVG Export Plug-In . SVG Version: 6.00 Build 0)  -->
<svg version="1.1" id="Layer_1" xmlns="http://www.w3.org/2000/svg" xmlns:xlink="http://www.w3.org/1999/xlink" x="0px" y="0px"
	 width="15.5px" height="22.4px" viewBox="0 0 15.5 22.4" style="enable-background:new 0 0 15.5 22.4;" xml:space="preserve">
<style type="text/css">
	.st0{clip-path:url(#SVGID_2_);}
	.st1{clip-path:url(#SVGID_4_);fill:#222222;}
</style>
<g>
	<defs>
		<path id="SVGID_1_" d="M13.9,5l-0.4,0.8L8.8,3.1l0.5-0.8c0.7-1.2,2.4-1.7,3.7-1C14.3,2.1,14.7,3.8,13.9,5z M8.1,14.9L8.1,14.9
			l-1.3,2.2l-4.7-2.6l1.3-2.2l4.9-8.3L13,6.6L8.1,14.9z M5.9,18.6L1.3,21l-0.1-5.1l0.4-0.7l4.7,2.6L5.9,18.6z M13.3,0.7
			c-1.8-1-3.9-0.4-4.9,1.2L8,2.7L7.5,3.5l-6,10.1l-1.1,2l-0.2,5.9l1.2,0.7L6.6,19l2.2-3.7l5.9-10C15.7,3.7,15.1,1.6,13.3,0.7z"/>
	</defs>
	<clipPath id="SVGID_2_">
		<use xlink:href="#SVGID_1_"  style="overflow:visible;"/>
	</clipPath>
	<g class="st0">
		<defs>
			<rect id="SVGID_3_" x="-867.8" y="-1189.8" width="1400" height="1700"/>
		</defs>
		<clipPath id="SVGID_4_">
			<use xlink:href="#SVGID_3_"  style="overflow:visible;"/>
		</clipPath>
		<rect x="-9.8" y="-9.8" class="st1" width="35" height="42"/>
	</g>
</g>
</svg>
