<?xml version="1.0" encoding="utf-8"?>
<!-- Generator: Adobe Illustrator 19.2.0, SVG Export Plug-In . SVG Version: 6.00 Build 0)  -->
<svg version="1.1" id="Layer_1" xmlns="http://www.w3.org/2000/svg" xmlns:xlink="http://www.w3.org/1999/xlink" x="0px" y="0px"
	 viewBox="0 0 69.2 69.2" style="enable-background:new 0 0 69.2 69.2;" xml:space="preserve">
<style type="text/css">
	.st0{fill-rule:evenodd;clip-rule:evenodd;fill:#000;}
</style>
<path class="st0" d="M63.9,28.5L49.8,42.6l5.3,19.6c0,0.2,0,0.3,0,0.5c0,0,0,0.1,0,0.1c0,0.4-0.2,0.8-0.5,1.2c0,0,0,0,0,0.1
	c0,0,0,0,0,0c-0.2,0.2-0.5,0.4-0.8,0.5c-0.2,0-0.3,0-0.5,0c0,0,0,0,0,0c-0.5,0-0.9-0.2-1.2-0.5c0,0-0.1,0-0.1,0L34.6,51.8L17.3,64.1
	c0,0-0.1,0-0.1,0c-0.3,0.3-0.8,0.5-1.2,0.5c0,0,0,0,0,0c-0.2,0-0.3,0-0.5,0c-0.3-0.1-0.6-0.3-0.8-0.5c0,0,0,0,0,0c0,0,0,0,0-0.1
	c-0.3-0.3-0.5-0.7-0.5-1.2c0,0,0-0.1,0-0.1c0-0.2,0-0.3,0-0.5l5.3-19.6L5.3,28.5c-0.4-0.3-0.6-0.8-0.6-1.4c0,0,0,0,0,0
	c0,0,0,0,0-0.1c0-0.5,0.2-0.9,0.5-1.2c0,0,0-0.1,0-0.1c0,0,0.1,0,0.1,0c0.3-0.3,0.7-0.5,1.2-0.5c0,0,0,0,0.1,0c0,0,0,0,0,0h15.8
	L33,5.6c0,0,0.1-0.1,0.1-0.1c0.1-0.1,0.2-0.2,0.2-0.3C33.4,5.1,33.5,5,33.6,5c0,0,0.1-0.1,0.1-0.1c0.1,0,0.1,0,0.2-0.1
	c0.1,0,0.2-0.1,0.4-0.1c0.1,0,0.2,0,0.4,0c0.1,0,0.2,0,0.4,0c0.1,0,0.2,0.1,0.4,0.1c0.1,0,0.1,0,0.2,0.1c0,0,0.1,0.1,0.1,0.1
	c0.1,0.1,0.2,0.2,0.3,0.2c0.1,0.1,0.2,0.2,0.2,0.3c0,0,0.1,0,0.1,0.1l10.7,19.7h15.8c0,0,0,0,0,0c0,0,0,0,0.1,0
	c0.5,0,0.9,0.2,1.2,0.5c0,0,0.1,0,0.1,0c0,0,0,0.1,0,0.1c0.3,0.3,0.5,0.7,0.5,1.2c0,0,0,0,0,0.1c0,0,0,0,0,0
	C64.5,27.7,64.3,28.2,63.9,28.5z"/>
</svg>
