<?xml version="1.0" encoding="utf-8"?>
<!-- Generator: Adobe Illustrator 19.2.0, SVG Export Plug-In . SVG Version: 6.00 Build 0)  -->
<svg version="1.1" id="Layer_1" xmlns="http://www.w3.org/2000/svg" xmlns:xlink="http://www.w3.org/1999/xlink" x="0px" y="0px"
	 width="26px" height="26px" viewBox="0 0 26 26" style="enable-background:new 0 0 26 26;" xml:space="preserve">
<style type="text/css">
	.st0{fill:#FFFFFF;stroke:#FFFFFF;stroke-width:1.25;stroke-miterlimit:10;}
</style>
<g id="_x33_5-interface_-_search">
	<g>
		<path class="st0" d="M23.5,23l-5.7-5.7c1.5-1.6,2.3-3.7,2.3-6.1c0-5-4-9-9-9c-4.9,0.1-8.9,4.1-8.9,9.1s4,9,9,9
			c2.3,0,4.5-0.9,6.1-2.3l5.7,5.7c0.2,0.2,0.4,0.2,0.6,0C23.7,23.4,23.7,23.1,23.5,23z M11.2,19.4c-4.5,0-8.2-3.7-8.2-8.2
			s3.7-8.2,8.2-8.2s8.2,3.7,8.2,8.2C19.4,15.8,15.7,19.4,11.2,19.4z"/>
	</g>
</g>
</svg>
