<?xml version="1.0" encoding="utf-8"?>
<!-- Generator: Adobe Illustrator 19.2.0, SVG Export Plug-In . SVG Version: 6.00 Build 0)  -->
<svg version="1.1" id="Layer_1" xmlns="http://www.w3.org/2000/svg" xmlns:xlink="http://www.w3.org/1999/xlink" x="0px" y="0px"
	 width="25px" height="25px" viewBox="0 0 25 25" style="enable-background:new 0 0 25 25;" xml:space="preserve">
<style type="text/css">
	.st0{fill:#FFFFFF;stroke:#FFFFFF;stroke-width:1.5;stroke-miterlimit:10;}
</style>
<path class="st0" d="M21.9,21.5l-7.8-7.6c1.1-1.2,1.7-2.7,1.7-4.5c0-3.7-3-6.6-6.6-6.6c-3.6,0.1-6.6,3-6.6,6.7s3,6.6,6.6,6.6
	c1.7,0,3.3-0.6,4.5-1.7l7.8,7.6c0.1,0.1,0.3,0.1,0.4,0C22.1,21.8,22.1,21.7,21.9,21.5z M9.3,15.5c-3.3,0-6-2.7-6-6s2.7-6,6-6
	s6,2.7,6,6S12.6,15.5,9.3,15.5z"/>
</svg>
