<?xml version="1.0" encoding="UTF-8" standalone="no"?>
<svg width="16px" height="16px" viewBox="0 0 16 16" version="1.1" xmlns="http://www.w3.org/2000/svg" xmlns:xlink="http://www.w3.org/1999/xlink">
    <!-- Generator: Sketch 3.7.1 (28215) - http://www.bohemiancoding.com/sketch -->
    <title>icon-footer-call</title>
    <desc>Created with Sketch.</desc>
    <defs></defs>
    <g id="Symbols" stroke="none" stroke-width="1" fill="none" fill-rule="evenodd">
        <g id="---FOOTER---" transform="translate(-515.000000, -109.000000)" fill="#004638">
            <g id="contact-us" transform="translate(380.000000, 109.000000)">
                <g id="Group">
                    <g id="icon-footer-call" transform="translate(135.000000, 0.000000)">
                        <path d="M0,3.92718371 C0.331368982,5.58203393 2.18070212,8.59851394 4.43071995,10.8492798 C6.68048844,13.0990483 9.69597111,14.9486308 11.3518187,15.278005 C11.3518187,15.278005 13.0590297,15.207692 14.4061979,13.8812187 L15.2018326,13.0903215 C15.3060555,12.9843532 15.3060555,12.8108146 15.2018326,12.7065917 L11.8337873,9.3385464 C11.727819,9.2343235 11.5552777,9.2343235 11.4510548,9.3385464 L10.6574149,10.1314383 L9.91314371,11.0597203 C9.91314371,11.0597203 8.49790643,10.7537837 6.51118856,8.76681647 C4.52322401,6.78109595 4.21728741,5.36685602 4.21728741,5.36685602 L5.14257732,4.61984213 L5.93945863,3.82794755 C6.04467888,3.72172996 6.04467888,3.55043538 5.93945863,3.44621248 L2.57241068,0.0781671752 C2.46719043,-0.0260557251 2.29564651,-0.0260557251 2.1906756,0.0781671752 L1.39578899,0.870809759 C0.0720584167,2.22171807 0,3.92718371 0,3.92718371 Z" id="Page-1"></path>
                    </g>
                </g>
            </g>
        </g>
    </g>
</svg>