<?xml version="1.0" encoding="UTF-8" standalone="no"?>
<svg width="19px" height="12px" viewBox="0 0 19 12" version="1.1" xmlns="http://www.w3.org/2000/svg" xmlns:xlink="http://www.w3.org/1999/xlink">
    <!-- Generator: Sketch 3.7.1 (28215) - http://www.bohemiancoding.com/sketch -->
    <title>icon-footer-email</title>
    <desc>Created with Sketch.</desc>
    <defs></defs>
    <g id="Symbols" stroke="none" stroke-width="1" fill="none" fill-rule="evenodd">
        <g id="---FOOTER---" transform="translate(-394.000000, -112.000000)" fill="#004638">
            <g id="contact-us" transform="translate(380.000000, 109.000000)">
                <g id="Group">
                    <g id="email" transform="translate(14.000000, 3.000000)">
                        <g id="icon-footer-email">
                            <path d="M1.3945,0.04775 C1.23725,0.04775 1.086,0.08 0.94725,0.13475 L9.297,7.04875 L17.7695,0.163 C17.61225,0.08975 17.4415,0.04775 17.25775,0.04775 L1.3945,0.04775 Z" id="Fill-1"></path>
                            <path d="M18.4405,0.962 L9.623,8.128 C9.52725,8.206 9.41025,8.24425 9.294,8.24425 C9.17475,8.24425 9.0575,8.203 8.962,8.124 L0.2335,0.8955 C0.19325,1.0165 0.168,1.1415 0.168,1.2725 L0.168,10.75875 C0.168,10.90225 0.19725,11.038 0.24225,11.168 L5.1065,6.42 C5.3135,6.21875 5.6435,6.22175 5.84475,6.42875 C6.046,6.63475 6.041,6.96375 5.836,7.166 L0.9775,11.90925 C1.1075,11.956 1.248,11.98625 1.3945,11.98625 L17.25875,11.98625 C17.42275,11.98625 17.579,11.953 17.72375,11.8945 L12.84375,7.13 C12.63675,6.92875 12.63275,6.59775 12.835,6.3925 C13.03625,6.1855 13.36525,6.1825 13.57225,6.38375 L18.42575,11.121 C18.461,11.00675 18.4845,10.88675 18.4845,10.76075 L18.4845,1.2735 C18.4845,1.166 18.46575,1.0635 18.4405,0.962 L18.4405,0.962 Z" id="Fill-2"></path>
                        </g>
                    </g>
                </g>
            </g>
        </g>
    </g>
</svg>