<?xml version="1.0" encoding="UTF-8" standalone="no"?>
<svg width="115px" height="34px" viewBox="0 0 115 34" version="1.1" xmlns="http://www.w3.org/2000/svg" xmlns:xlink="http://www.w3.org/1999/xlink">
    <!-- Generator: Sketch 3.7.1 (28215) - http://www.bohemiancoding.com/sketch -->
    <title>icon-footer-call</title>
    <desc>Created with Sketch.</desc>
    <defs></defs>
    <g id="Symbols" stroke="none" stroke-width="1" fill="none" fill-rule="evenodd">
        <g id="---FOOTER---" transform="translate(-466.000000, -109.000000)">
            <g id="contact-us" transform="translate(380.000000, 109.000000)">
                <g id="Group">
                    <g id="icon-footer-call" transform="translate(86.000000, 0.000000)">
                        <text id="1-800-285-2265" font-family="Montserrat-Regular, Montserrat" font-size="12" font-weight="normal" letter-spacing="2" fill="#202528">
                            <tspan x="0.082" y="33">1.800.285.2265</tspan>
                        </text>
                        <path d="M49,3.92718371 C49.331369,5.58203393 51.1807021,8.59851394 53.4307199,10.8492798 C55.6804884,13.0990483 58.6959711,14.9486308 60.3518187,15.278005 C60.3518187,15.278005 62.0590297,15.207692 63.4061979,13.8812187 L64.2018326,13.0903215 C64.3060555,12.9843532 64.3060555,12.8108146 64.2018326,12.7065917 L60.8337873,9.3385464 C60.727819,9.2343235 60.5552777,9.2343235 60.4510548,9.3385464 L59.6574149,10.1314383 L58.9131437,11.0597203 C58.9131437,11.0597203 57.4979064,10.7537837 55.5111886,8.76681647 C53.523224,6.78109595 53.2172874,5.36685602 53.2172874,5.36685602 L54.1425773,4.61984213 L54.9394586,3.82794755 C55.0446789,3.72172996 55.0446789,3.55043538 54.9394586,3.44621248 L51.5724107,0.0781671752 C51.4671904,-0.0260557251 51.2956465,-0.0260557251 51.1906756,0.0781671752 L50.395789,0.870809759 C49.0720584,2.22171807 49,3.92718371 49,3.92718371 Z" id="Page-1" fill="#004638"></path>
                    </g>
                </g>
            </g>
        </g>
    </g>
</svg>