<?xml version="1.0" encoding="UTF-8" standalone="no"?>
<svg width="100px" height="16px" viewBox="0 0 100 16" version="1.1" xmlns="http://www.w3.org/2000/svg" xmlns:xlink="http://www.w3.org/1999/xlink">
    <!-- Generator: Sketch 3.7.2 (28276) - http://www.bohemiancoding.com/sketch -->
    <title>jab-logo-text-only</title>
    <desc>Created with Sketch.</desc>
    <defs></defs>
    <g id="Page-1" stroke="none" stroke-width="1" fill="none" fill-rule="evenodd">
        <g id="sticky-header" transform="translate(-462.000000, -10.000000)" fill="#101820">
            <g id="---STICKY-HEADER---" transform="translate(-30.000000, -1.000000)">
                <g id="jab-logo-text-only" transform="translate(492.000000, 11.000000)">
                    <path d="M99.2671153,14.775915 C98.3977309,14.775915 97.6653043,14.3480519 96.3607695,13.038961 L90.9365068,7.54427391 L95.628801,1.67933884 C96.1092985,1.08193625 96.5439907,0.625737898 97.1390014,0.0854781582 L95.0791375,0.0854781582 C94.8038476,0.682880756 94.4149607,1.33789847 94.0031711,1.87863046 L89.5394454,7.54427391 L89.5394454,4.12798111 C89.5394454,2.9322314 89.6086114,1.79362456 89.70068,1.33789847 C89.7913745,0.882172373 89.9979564,0.740023613 90.7079384,0.654545455 L90.7079384,0.027863046 L90.4326486,0.0566706021 C89.9292484,0.113341204 89.4024876,0.170484061 88.8995455,0.170484061 C88.2582714,0.170484061 87.6174553,0.113341204 87,0 L87,0.654545455 C87.6866213,0.740023613 87.8469399,0.825501771 87.960537,1.16694215 C88.0292449,1.36670602 88.0979529,1.79362456 88.1213136,2.27768595 C88.1213136,2.44817001 88.1437581,2.76127509 88.1666608,3.24533648 C88.1904795,3.70059032 88.1904795,3.98583235 88.1904795,4.12798111 L88.1904795,11.8436836 C88.1904795,11.957497 88.1666608,12.2134593 88.1666608,12.5553719 C88.1437581,12.9534829 88.1437581,13.1815821 88.1437581,13.2953955 C88.1213136,13.8927981 88.0759663,14.3201889 87.9838977,14.6616293 C87.891829,15.0890201 87.6866213,15.2311688 87.0687079,15.316647 L87.0687079,15.9433294 C87.6866213,15.8857143 88.281174,15.8578512 88.8995455,15.8578512 C89.4711955,15.8578512 90.0662063,15.8857143 90.6392305,15.9711924 L90.6392305,15.3449823 C89.9979564,15.2599764 89.769388,15.0890201 89.70068,14.6616293 C89.6086114,14.2063754 89.5394454,13.0677686 89.5394454,11.8720189 L89.5394454,8.19929162 L94.850111,13.8361275 C95.3310666,14.3480519 95.8115641,14.8613932 96.3154223,15.316647 C96.8188225,15.7435655 97.3680279,16 97.8480674,16 C98.2145097,16 98.6492019,15.8295159 99.0843522,15.5447462 C99.3820866,15.3449823 99.5653078,15.174026 100,14.6904368 C99.7247102,14.775915 99.5653078,14.775915 99.2671153,14.775915" id="Fill-45"></path>
                    <path d="M25.5264002,8.60384413 C24.9143634,7.584974 23.8826444,7.15545948 21.709914,6.99468365 C19.5376694,6.80726763 18.5627823,6.37822048 18.0614951,5.33317754 C17.8943994,4.9583455 17.7826784,4.50265818 17.7826784,4.02033067 C17.7826784,2.14383362 19.0635838,1.15207104 21.5151309,1.15207104 C22.5177053,1.15207104 23.2419488,1.31331425 23.7990965,1.63486592 C24.1337737,1.82321669 24.245009,2.09055325 24.4674795,3.40340013 L25.1086608,3.26973185 L25.3039297,0.803879184 C24.35673,0.401472221 23.9661923,0.267803938 23.2696362,0.133668283 C22.7688347,0.0266401823 22.2952349,0 21.8493224,0 C18.8139117,0 16.278331,2.25132909 16.278331,4.9583455 C16.278331,5.97674826 16.6397241,6.83390781 17.2818769,7.39709061 C17.9220868,7.95980604 18.7580512,8.22760998 20.3731481,8.38838582 C22.6289406,8.63001694 23.5756545,9.08570427 24.1051149,10.1840276 C24.3008695,10.5864345 24.4121047,11.068762 24.4121047,11.5244494 C24.4121047,13.5075072 22.8518968,14.7404335 20.3454607,14.7404335 C18.6745033,14.7404335 17.6991305,14.3913069 17.3095643,13.6687504 C17.1142954,13.3200911 17.0584349,12.9447917 17.0584349,12.1946603 L16.4172536,12.1946603 L16,15.0087048 C16.723272,15.4372846 17.0307476,15.5714202 17.64327,15.7321961 C18.2839656,15.9196121 18.9246612,16 19.5653568,16 C23.1030262,16 26,13.4799322 26,10.3985511 C26,9.67505988 25.8319328,9.08570427 25.5264002,8.60384413" id="Fill-46"></path>
                    <path d="M25,15.0005924 C25,15.5924171 25.4081754,16 25.9994076,16 C26.5918246,16 27,15.5924171 27,15.0005924 C27,14.3880332 26.5918246,14 25.9994076,14 C25.4081754,14 25,14.4081754 25,15.0005924" id="Fill-47"></path>
                    <path d="M45,14 C44.4081754,14 44,14.4081754 44,15.0005924 C44,15.5924171 44.4081754,16 45,16 C45.5924171,16 46,15.5924171 46,15.0005924 C46,14.3880332 45.5924171,14 45,14" id="Fill-48"></path>
                    <path d="M33.9506133,7.66663787 L35.8544868,2.8336933 L37.5789542,7.66663787 L33.9506133,7.66663787 Z M43,16 L43,15.3613823 C42.172111,15.194586 41.9253712,14.9167459 41.4544868,13.7224478 L36.1238218,0 L30.4786314,13.9168898 C30.1654616,14.694658 30.1202711,14.8057019 29.9630084,14.9720374 C29.8965784,15.0554356 29.8066495,15.1388337 29.6945771,15.194586 C29.515623,15.3056299 29.3588121,15.3332757 29,15.3613823 L29,16 C29.3362169,15.972815 29.5829567,15.9166019 29.5829567,15.9166019 C29.8518399,15.8894168 30.277082,15.8894168 30.5459651,15.8894168 C31.0380891,15.8894168 31.2622337,15.9447084 31.7552615,15.972815 L32.1140736,16 L32.1140736,15.3613823 C31.5537121,15.3613823 31.3747579,15.2498776 31.3747579,14.8891001 C31.3747579,14.5555076 31.5537121,13.9721814 31.8677857,13.1391217 L33.5701097,8.72270698 L38.0498386,8.72270698 L39.7526146,13.222059 C40.0436411,13.9721814 40.2677857,14.4997552 40.2677857,14.8614543 C40.2677857,15.194586 40.0657844,15.3332757 39.3716591,15.3613823 L39.3716591,15.972815 C40.4020013,15.8894168 40.7603615,15.8894168 41.3654616,15.8894168 C41.8349903,15.8894168 42.2168496,15.8894168 42.8214977,15.972815 L43,16 Z" id="Fill-49"></path>
                    <path d="M61.9506133,7.66663787 L63.8544868,2.8336933 L65.5794061,7.66663787 L61.9506133,7.66663787 Z M67.7526146,13.222059 C68.0431892,13.9721814 68.2668819,14.4997552 68.2668819,14.8614543 C68.2668819,15.194586 68.0653325,15.3332757 67.3712072,15.3613823 L67.3712072,15.972815 C68.4020013,15.8894168 68.7599096,15.8894168 69.3645578,15.8894168 C69.8354422,15.8894168 70.2163977,15.8894168 70.8210458,15.972815 L71,16 L71,15.3613823 C70.1716591,15.194586 69.9253712,14.9167459 69.4549387,13.7224478 L64.1238218,0 L58.4786314,13.9168898 C58.1650097,14.694658 58.1198192,14.8057019 57.9639122,14.9720374 C57.8961265,15.0554356 57.8066495,15.1388337 57.6941252,15.194586 C57.515623,15.3056299 57.3583602,15.3332757 57,15.3613823 L57,16 C57.3362169,15.972815 57.5829567,15.9166019 57.5829567,15.9166019 C57.851388,15.8894168 58.2775339,15.8894168 58.546417,15.8894168 C59.038541,15.8894168 59.2626856,15.9447084 59.7557134,15.972815 L60.1136217,16 L60.1136217,15.3613823 C59.5537121,15.3613823 59.3752098,15.2498776 59.3752098,14.8891001 C59.3752098,14.5555076 59.5537121,13.9721814 59.8677857,13.1391217 L61.5696578,8.72270698 L66.0502905,8.72270698 L67.7526146,13.222059 Z" id="Fill-50"></path>
                    <path d="M75.3197216,15.3087903 C75.1508121,15.2187767 74.8672854,15.1396595 74.7823666,14.1618275 L74.7433875,12.8443127 L74.712761,10.1036355 L74.67471,6.74044315 L74.6338747,3.05367562 L85.1893271,16 L85.0083527,4.27028048 L85.0060325,2.45863836 C85.0055684,1.46469872 85.0575406,1.12454206 85.2524362,0.86966145 C85.4464037,0.615254592 86,0.658366369 86,0.658366369 L86,0.00174084891 C86,-0.016261871 84.5327146,0.111178436 84.3763341,0.116389749 C84.2204176,0.120179796 82.8116009,0.00174084891 82.8116009,0.00174084891 L82.8116009,0.658366369 C83.1582367,0.638942382 83.4979118,0.750274991 83.4979118,0.750274991 C84.136891,0.944041108 84.0361949,2.52212163 84.0361949,2.52212163 L84.1512761,12.7969371 L80.9526682,8.67763057 L77.0682135,3.67476946 L75.912297,2.18670254 C75.912297,2.18670254 75.1113689,1.10985563 74.9104408,0.807599442 C74.7104408,0.504869494 74.4491879,0.00174084891 74.4491879,0.00174084891 C73.8835267,0.169450397 73.2886311,0.108335901 73.1846868,0.101229564 C73.0807425,0.0936494715 72.5452436,0.0543277412 72.5452436,0.0543277412 L72,0.00174084891 L72,0.658366369 C72,0.658366369 72.663109,0.733219783 72.9345708,1.06390132 C72.9345708,1.06390132 73.5577726,1.85554724 73.5828306,2.00667534 C73.6078886,2.15732968 73.6714617,2.69646376 73.6788863,2.89923124 C73.6853828,3.1010512 73.7090487,4.37119047 73.7090487,4.37119047 L73.7800464,8.61556856 L73.7693735,12.5846945 L73.7174014,14.0552325 C73.7174014,14.0552325 73.7197216,15.3376894 72.9099768,15.3315306 L72.5118329,15.3149491 L72.5071926,16 C72.5071926,16 73.9976798,15.8834561 74.1016241,15.8829823 C74.2060325,15.8820348 75.6148492,15.9474131 76.0078886,15.9952624 L76.0204176,15.3670623 C76.0204176,15.3670623 75.487703,15.3988039 75.3197216,15.3087903" id="Fill-51"></path>
                    <path d="M54.3644822,14.6845421 C54.3644822,14.6845421 52.4882774,15.3261595 50.0337557,14.7712599 C50.0337557,14.7712599 49.9557907,12.8497247 49.9461598,12.5165954 C49.9365288,12.1834661 49.9149738,10.9528306 49.9149738,10.9528306 L49.9149738,6.42691605 C49.9149738,6.42691605 49.9612942,2.43315545 49.9612942,2.22654895 C49.9612942,2.01994245 50.0300868,0.947578869 50.0300868,0.947578869 L51.444005,0.948052737 C53.595839,0.924359331 54.4254783,1.69439504 54.4254783,1.69439504 C55.071212,2.09149653 55.201918,3.18755352 55.201918,3.18755352 C55.3555549,4.63237744 54.7102799,5.54552133 54.7102799,5.54552133 C54.3566857,6.18050462 53.5343842,6.56955036 53.2422448,6.69654702 C52.9501054,6.82401754 51.9283052,7.02209442 51.9283052,7.02209442 L50.8138644,7.9115449 C50.8138644,7.9115449 52.1663278,7.83999081 52.4433329,7.84804657 C52.7198793,7.85610233 53.9260437,7.91960066 54.8639168,8.4200054 C54.8639168,8.4200054 56.0856742,9.03129529 56.4007445,10.2221259 C56.4007445,10.2221259 56.692884,10.9528306 56.4699958,12.2867693 C56.4699958,12.2867693 56.3081038,14.1604439 54.3644822,14.6845421 M57.9632549,10.9447748 C58.2503495,9.31419456 56.7786455,7.88785149 56.2053734,7.49596255 C55.6316427,7.10407361 54.2282727,6.83823359 54.2282727,6.83823359 C55.9838611,5.78150766 56.5158576,3.82253681 56.5158576,3.82253681 C57.09234,1.87730814 55.8320587,0.892610166 55.8320587,0.892610166 C54.8253929,-0.060338642 52.6735589,0.000790346676 52.6735589,0.000790346676 L51.7875096,0.0235360169 C51.7875096,0.0235360169 49.6847477,0.111675489 49.1238583,0.134421159 C48.5625103,0.157166829 47,0.000790346676 47,0.000790346676 L47,0.537209069 C47.4609107,0.536735201 47.9030181,0.753292936 47.9030181,0.753292936 C48.4377663,0.873181573 48.4175871,3.16386011 48.4175871,3.16386011 L48.4221733,7.52534237 L48.4221733,11.6541554 C48.4221733,11.6541554 48.3708081,13.7586037 48.2988052,14.6897546 C48.2268022,15.6209055 47.9484213,16 47.9484213,16 C48.6615717,15.698146 50.0122007,15.89954 50.0122007,15.89954 C51.6210314,16.0582858 52.635035,15.89954 52.635035,15.89954 C54.3461375,15.6133236 55.7499661,14.5021028 55.7499661,14.5021028 C57.8403453,12.9667701 57.9632549,10.9447748 57.9632549,10.9447748" id="Fill-52"></path>
                    <path d="M2.06492601,0 L2.06492601,0.528766075 C2.73897885,0.616815279 3.00023243,0.726523646 3.10901061,1.03493129 C3.21732393,1.34333892 3.23963741,1.47564816 3.28286976,2.3561402 C3.30471837,2.86277626 3.32610212,3.45699067 3.32610212,3.96362673 L3.32610212,11.881934 C3.32610212,14.105765 2.65251414,15.2951355 1.36948942,15.2951355 C0.91299295,15.2951355 0.565274657,15.1849563 0,14.8327595 L0.0655458278,15.3831847 C0.67405284,15.8239016 1.10870071,16 1.67397536,16 C2.28248237,16 2.84775703,15.8239016 3.30471837,15.4717048 C4.28279228,14.7225803 4.71790501,13.5336806 4.71790501,11.4633472 L4.71790501,3.96362673 C4.71790501,2.66454784 4.80436972,1.36546894 4.93499651,1.03493129 C5.06562331,0.726523646 5.32641202,0.616815279 6,0.528766075 L6,0 C5.19578523,0.088049204 4.60912683,0.110179218 4.00061982,0.110179218 C3.39164794,0.110179218 2.82637329,0.088049204 2.06492601,0" id="Fill-53"></path>
                    <path d="M10.7292013,7.95346678 C8.63999413,7.95346678 7.34221332,6.5406005 7.34221332,4.26552827 C7.34221332,2.2448927 8.4956985,0.989424267 10.352185,0.989424267 C11.4049272,0.989424267 12.305895,1.33625671 12.892316,1.96816962 C13.3933913,2.49700784 13.6582266,3.34017747 13.6582266,4.40713991 C13.6582266,6.52852868 12.4809854,7.95346678 10.7292013,7.95346678 M10.9183693,0 C10.1005475,0 9.25193079,0.189898886 8.53089256,0.533481222 C6.87545215,1.29446967 6,2.69804994 6,4.59193149 C6,7.26955221 7.61320755,9 10.109346,9 C12.9429074,9 15,6.90089765 15,4.00877012 C15,1.49876187 13.4738977,0 10.9183693,0" id="Fill-54"></path>
                </g>
            </g>
        </g>
    </g>
</svg>