<?xml version="1.0" encoding="UTF-8" standalone="no"?>
<svg width="39px" height="38px" viewBox="0 0 39 38" version="1.1" xmlns="http://www.w3.org/2000/svg" xmlns:xlink="http://www.w3.org/1999/xlink">
    <!-- Generator: Sketch 3.7.2 (28276) - http://www.bohemiancoding.com/sketch -->
    <title>movie-overlay</title>
    <desc>Created with Sketch.</desc>
    <defs>
        <path d="M19.5138245,4.12201493 C27.7506141,4.12201493 34.4510106,10.8272388 34.4510106,19.0699627 C34.4510106,27.3126866 27.7506141,34.0179104 19.5138245,34.0179104 C11.2770349,34.0179104 4.57663841,27.3126866 4.57663841,19.0699627 C4.57663841,10.8272388 11.2770349,4.12201493 19.5138245,4.12201493 L19.5138245,4.12201493 Z M19.5138245,0.344029851 C9.17742819,0.344029851 0.801373263,8.72835821 0.801373263,19.0699627 C0.801373263,29.4115672 9.17966539,37.7958955 19.5138245,37.7958955 C29.8479836,37.7958955 38.2262757,29.4115672 38.2262757,19.0699627 C38.2262757,8.7266791 29.8479836,0.344029851 19.5138245,0.344029851 L19.5138245,0.344029851 Z" id="path-1"></path>
        <filter x="-50%" y="-50%" width="200%" height="200%" filterUnits="objectBoundingBox" id="filter-2">
            <feOffset dx="0" dy="0" in="SourceAlpha" result="shadowOffsetOuter1"></feOffset>
            <feGaussianBlur stdDeviation="2" in="shadowOffsetOuter1" result="shadowBlurOuter1"></feGaussianBlur>
            <feColorMatrix values="0 0 0 0 0   0 0 0 0 0   0 0 0 0 0  0 0 0 0.5 0" type="matrix" in="shadowBlurOuter1"></feColorMatrix>
        </filter>
        <path d="M16.3370088,10.6436567 C15.7888962,10.2216418 15.3408981,10.4427239 15.3408981,11.1333955 L15.3408981,26.8291045 C15.3408981,27.5225746 15.7888962,27.743097 16.3370088,27.3188433 L26.1403936,19.75 C26.6885062,19.3257463 26.6885062,18.6350746 26.1403936,18.2108209 L16.3370088,10.6436567 Z" id="path-3"></path>
        <filter x="-50%" y="-50%" width="200%" height="200%" filterUnits="objectBoundingBox" id="filter-4">
            <feOffset dx="0" dy="0" in="SourceAlpha" result="shadowOffsetOuter1"></feOffset>
            <feGaussianBlur stdDeviation="2" in="shadowOffsetOuter1" result="shadowBlurOuter1"></feGaussianBlur>
            <feColorMatrix values="0 0 0 0 0   0 0 0 0 0   0 0 0 0 0  0 0 0 0.5 0" type="matrix" in="shadowBlurOuter1"></feColorMatrix>
        </filter>
    </defs>
    <g id="4.-PDP" stroke="none" stroke-width="1" fill="none" fill-rule="evenodd">
        <g id="ASSET-EXPORT" transform="translate(-513.000000, -111.000000)">
            <g id="movie-overlay" transform="translate(513.000000, 111.000000)">
                <g id="Fill-1">
                    <use fill="black" fill-opacity="1" filter="url(#filter-2)" xlink:href="#path-1"></use>
                    <use fill="#EFEFEF" fill-rule="evenodd" xlink:href="#path-1"></use>
                </g>
                <g id="Fill-2">
                    <use fill="black" fill-opacity="1" filter="url(#filter-4)" xlink:href="#path-3"></use>
                    <use fill="#EFEFEF" fill-rule="evenodd" xlink:href="#path-3"></use>
                </g>
            </g>
        </g>
    </g>
</svg>