<?xml version="1.0" encoding="UTF-8" standalone="no"?>
<svg width="16px" height="20px" viewBox="0 0 16 20" version="1.1" xmlns="http://www.w3.org/2000/svg" xmlns:xlink="http://www.w3.org/1999/xlink">
    <!-- Generator: Sketch 3.7.1 (28215) - http://www.bohemiancoding.com/sketch -->
    <title>social-pt</title>
    <desc>Created with Sketch.</desc>
    <defs></defs>
    <g id="Symbols" stroke="none" stroke-width="1" fill="none" fill-rule="evenodd">
        <g id="---FOOTER---" transform="translate(-892.000000, -387.000000)" fill="#7E8183">
            <g id="folow-social-icons" transform="translate(651.000000, 387.000000)">
                <path d="M249.692686,0 C244.271699,0 241.538462,3.896 241.538462,7.1452 C241.538462,9.1124 242.281024,10.8624 243.874681,11.5144 C244.136035,11.622 244.370255,11.5184 244.446067,11.2284 C244.498338,11.028 244.623229,10.522 244.679091,10.31 C244.755302,10.024 244.725775,9.9236 244.514698,9.6732 C244.055434,9.13 243.761761,8.4264 243.761761,7.4296 C243.761761,4.5396 245.919223,1.952 249.379062,1.952 C252.44348,1.952 254.126915,3.8288 254.126915,6.3348 C254.126915,9.6328 252.670518,12.4168 250.509465,12.4168 C249.316018,12.4168 248.42223,11.4272 248.708721,10.2132 C249.051872,8.7644 249.715829,7.2008 249.715829,6.1544 C249.715829,5.2184 249.214669,4.4376 248.177236,4.4376 C246.957055,4.4376 245.97668,5.7032 245.97668,7.398 C245.97668,8.4776 246.34058,9.208 246.34058,9.208 C246.34058,9.208 245.092069,14.5116 244.873011,15.4412 C244.437289,17.2912 244.807573,19.558 244.839095,19.7872 C244.857051,19.9232 245.03102,19.9556 245.110025,19.8532 C245.222147,19.706 246.67615,17.9072 247.169729,16.1096 C247.309782,15.6008 247.972542,12.9656 247.972542,12.9656 C248.368762,13.7244 249.527495,14.3912 250.759646,14.3912 C254.427371,14.3912 256.916014,11.0396 256.916014,6.5528 C256.916014,3.1596 254.049506,0 249.692686,0" id="social-pt"></path>
            </g>
        </g>
    </g>
</svg>