<?xml version="1.0" encoding="UTF-8" standalone="no"?>
<svg width="21px" height="19px" viewBox="0 0 21 19" version="1.1" xmlns="http://www.w3.org/2000/svg" xmlns:xlink="http://www.w3.org/1999/xlink">
    <!-- Generator: Sketch 3.7.1 (28215) - http://www.bohemiancoding.com/sketch -->
    <title>social-gp</title>
    <desc>Created with Sketch.</desc>
    <defs></defs>
    <g id="Symbols" stroke="none" stroke-width="1" fill="none" fill-rule="evenodd">
        <g id="---FOOTER---" transform="translate(-789.000000, -387.000000)" fill="#7E8183">
            <g id="folow-social-icons" transform="translate(651.000000, 387.000000)">
                <g id="Page-1" transform="translate(138.461538, 0.769231)">
                    <g id="social-gp">
                        <path d="M19.4647199,7.26836 L16.4673361,7.26836 L16.4673361,4.26396 C16.4673361,4.03476 16.2817951,3.84836 16.0531608,3.84836 L15.1996726,3.84836 C14.9702402,3.84836 14.7843003,4.03476 14.7843003,4.26396 L14.7843003,7.26836 L11.7873155,7.26836 C11.5586812,7.26836 11.3727413,7.45516 11.3727413,7.68436 L11.3727413,8.54036 C11.3727413,8.76996 11.5586812,8.95596 11.7873155,8.95596 L14.7843003,8.95596 L14.7843003,11.96116 C14.7843003,12.19076 14.9702402,12.37676 15.1996726,12.37676 L16.0531608,12.37676 C16.2817951,12.37676 16.4673361,12.19076 16.4673361,11.96116 L16.4673361,8.95596 L19.4647199,8.95596 C19.6929552,8.95596 19.8792941,8.76996 19.8792941,8.54036 L19.8792941,7.68436 C19.8792941,7.45516 19.6929552,7.26836 19.4647199,7.26836" id="Fill-1"></path>
                        <path d="M4.36535911,2.07072 C4.64586508,1.74952 5.01335582,1.57992 5.42593501,1.57992 L5.4726195,1.58072 C6.63813575,1.61512 7.75337639,2.91712 7.95886796,4.48312 C8.07378363,5.36032 7.87946442,6.18432 7.43935335,6.68712 C7.15844838,7.00872 6.7961448,7.17832 6.36680708,7.17832 L6.36600905,7.17832 L6.34725545,7.17832 C5.20528095,7.14352 4.06649856,5.79152 3.86260304,4.22752 C3.74768737,3.35312 3.93123324,2.56712 4.36535911,2.07072 M2.7318009,13.81352 C2.7318009,12.57072 4.30710325,11.48032 6.10226162,11.48032 L6.15054216,11.48072 C6.54077664,11.48512 6.92183381,11.54352 7.28174332,11.65352 C7.40424023,11.73872 7.52354504,11.81992 7.63766269,11.89752 C8.46920527,12.46552 9.01824681,12.84072 9.17146771,13.44272 C9.20737886,13.59392 9.22533443,13.74552 9.22533443,13.89232 C9.22533443,15.43992 8.07378363,16.22472 5.80260304,16.22472 C4.08046401,16.22472 2.7318009,15.16552 2.7318009,13.81352 M9.39212176,9.90232 C8.76168161,9.45512 8.18830029,8.79872 8.17832497,8.59712 C8.17832497,8.22992 8.21104401,8.05432 9.03221226,7.41272 C10.0947832,6.57912 10.6797359,5.48272 10.6797359,4.32512 C10.6797359,3.27512 10.3597277,2.34232 9.81467626,1.68712 L10.2372308,1.68712 C10.3250136,1.68712 10.4100033,1.65992 10.4806285,1.60872 L11.6597112,0.75232 C11.8061489,0.64712 11.8675969,0.45952 11.8113361,0.28792 C11.7554743,0.11672 11.5970662,-8.00000003e-05 11.4171115,-8.00000003e-05 L6.14415796,-8.00000003e-05 C5.56718552,-8.00000003e-05 4.98103579,0.10192 4.4056594,0.30032 C2.48361497,0.96472 1.14013904,2.60632 1.14013904,4.29152 C1.14013904,6.67912 2.985174,8.48872 5.45147182,8.54552 C5.40319128,8.73472 5.3788515,8.92112 5.3788515,9.10392 C5.3788515,9.47192 5.47182147,9.82032 5.66334759,10.15712 C5.64100288,10.15752 5.61945619,10.15752 5.59551543,10.15752 C3.24453229,10.15752 1.12258248,11.31352 0.31697573,13.03472 C0.10669601,13.48192 0.000159605101,13.93432 0.000159605101,14.38112 C0.000159605101,14.81552 0.111484163,15.23392 0.329744138,15.62672 C0.835692308,16.53432 1.92340107,17.23912 3.39256602,17.61112 C4.15148828,17.80312 4.96667133,17.90112 5.81297738,17.90112 C6.57349568,17.90112 7.29850185,17.80232 7.96884327,17.60792 C10.0592711,16.99952 11.4099292,15.45752 11.4099292,13.67672 C11.4099292,11.96792 10.8624838,10.94552 9.39212176,9.90232" id="Fill-4"></path>
                    </g>
                </g>
            </g>
        </g>
    </g>
</svg>