<?xml version="1.0" encoding="UTF-8" standalone="no"?>
<svg width="21px" height="20px" viewBox="0 0 21 20" version="1.1" xmlns="http://www.w3.org/2000/svg" xmlns:xlink="http://www.w3.org/1999/xlink">
    <!-- Generator: Sketch 3.7.1 (28215) - http://www.bohemiancoding.com/sketch -->
    <title>social-ig</title>
    <desc>Created with Sketch.</desc>
    <defs></defs>
    <g id="Symbols" stroke="none" stroke-width="1" fill="none" fill-rule="evenodd">
        <g id="---FOOTER---" transform="translate(-739.000000, -387.000000)" fill="#7E8183">
            <g id="folow-social-icons" transform="translate(651.000000, 387.000000)">
                <path d="M106.315763,15.998 C106.315763,17.046 105.465467,17.898 104.420053,17.898 L92.2844796,17.898 C91.2390662,17.898 90.3887701,17.046 90.3887701,15.998 L90.3887701,7.8796 L93.3414644,7.8796 C93.0868943,8.5084 92.9432497,9.1952 92.9432497,9.9152 C92.9432497,12.9044 95.3692472,15.3376 98.3522666,15.3376 C101.335286,15.3376 103.761283,12.9044 103.761283,9.9152 C103.761283,9.1952 103.616841,8.5084 103.362271,7.8796 L106.315763,7.8796 L106.315763,15.998 Z M95.5292513,7.8796 C96.1624846,7.0008 97.1903414,6.4244 98.3522666,6.4244 C99.5141917,6.4244 100.542049,7.0008 101.175282,7.8796 C101.587462,8.4536 101.834451,9.1552 101.834451,9.9152 C101.834451,11.8388 100.271518,13.4048 98.3522666,13.4048 C96.4322172,13.4048 94.8704813,11.8388 94.8704813,9.9152 C94.8704813,9.1552 95.1170712,8.4536 95.5292513,7.8796 L95.5292513,7.8796 Z M105.516541,2.2856 L105.953858,2.284 L105.953858,2.7204 L105.953858,5.6448 L102.612127,5.6556 L102.600555,2.2948 L105.516541,2.2856 Z M104.420053,0 L92.2844796,0 C90.1764953,0 88.4615385,1.7188 88.4615385,3.832 L88.4615385,7.8796 L88.4615385,15.998 C88.4615385,18.1112 90.1764953,19.83 92.2844796,19.83 L104.420053,19.83 C106.528038,19.83 108.242995,18.1112 108.242995,15.998 L108.242995,7.8796 L108.242995,3.832 C108.242995,1.7188 106.528038,0 104.420053,0 L104.420053,0 Z" id="social-ig"></path>
            </g>
        </g>
    </g>
</svg>