<?xml version="1.0" encoding="UTF-8" standalone="no"?>
<svg width="20px" height="17px" viewBox="0 0 20 17" version="1.1" xmlns="http://www.w3.org/2000/svg" xmlns:xlink="http://www.w3.org/1999/xlink">
    <!-- Generator: Sketch 3.7.1 (28215) - http://www.bohemiancoding.com/sketch -->
    <title>social-tw</title>
    <desc>Created with Sketch.</desc>
    <defs></defs>
    <g id="Symbols" stroke="none" stroke-width="1" fill="none" fill-rule="evenodd">
        <g id="---FOOTER---" transform="translate(-651.000000, -388.000000)" fill="#7E8183">
            <g id="folow-social-icons" transform="translate(651.000000, 387.000000)">
                <path d="M19.6565652,3.43406154 C18.9339531,3.75606154 18.1562773,3.97326154 17.3402962,4.07046154 C18.1730358,3.57046154 18.8122542,2.77846154 19.1135088,1.83366154 C18.3342369,2.29726154 17.4715714,2.63366154 16.552645,2.81526154 C15.8172645,2.02966154 14.769058,1.53846154 13.6091279,1.53846154 C11.3822378,1.53846154 9.57630605,3.34886154 9.57630605,5.58126154 C9.57630605,5.89806154 9.61221719,6.20646154 9.68084739,6.50246154 C6.32914027,6.33406154 3.35729329,4.72486154 1.36861374,2.27846154 C1.02147265,2.87566154 0.822365282,3.56966154 0.822365282,4.31086154 C0.822365282,5.71366154 1.53460304,6.95086154 2.61632661,7.67606154 C1.9555615,7.65486154 1.33350062,7.47326154 0.790045249,7.17006154 C0.789646236,7.18686154 0.789646236,7.20406154 0.789646236,7.22126154 C0.789646236,9.17966154 2.17980666,10.8136615 4.02484163,11.1852615 C3.68647882,11.2776615 3.33016043,11.3272615 2.96227067,11.3272615 C2.70211436,11.3272615 2.44953928,11.3020615 2.20334842,11.2544615 C2.71687783,12.8604615 4.20599342,14.0296615 5.97042781,14.0620615 C4.5902427,15.1464615 2.85134513,15.7928615 0.962019745,15.7928615 C0.636425339,15.7928615 0.315619087,15.7736615 0,15.7364615 C1.78478404,16.8836615 3.90473879,17.5528615 6.18190457,17.5528615 C13.5999506,17.5528615 17.6559153,11.3924615 17.6559153,6.05006154 C17.6559153,5.87486154 17.6523241,5.70006154 17.6447429,5.52686154 C18.4323941,4.95726154 19.1163019,4.24486154 19.6565652,3.43406154" id="social-tw"></path>
            </g>
        </g>
    </g>
</svg>