<?xml version="1.0" encoding="UTF-8" standalone="no"?>
<svg width="19px" height="12px" viewBox="0 0 19 12" version="1.1" xmlns="http://www.w3.org/2000/svg" xmlns:xlink="http://www.w3.org/1999/xlink">
    <!-- Generator: Sketch 3.7.2 (28276) - http://www.bohemiancoding.com/sketch -->
    <title>social-email</title>
    <desc>Created with Sketch.</desc>
    <defs></defs>
    <g id="Desktop" stroke="none" stroke-width="1" fill="none" fill-rule="evenodd">
        <g id="Desktop---Product-(PDP)" transform="translate(-209.000000, -1058.000000)" fill="#888888">
            <g id="---page-content---" transform="translate(-7.000000, 264.000000)">
                <g id="share-social-icons" transform="translate(146.000000, 793.000000)">
                    <g id="Group-6" transform="translate(70.000000, 0.000000)">
                        <path d="M1.23281819,1 C1.07475814,1 0.922728986,1.03241613 0.783264229,1.08744817 L9.17602714,8.03706496 L17.6921724,1.1158437 C17.5341123,1.04221636 17.3624827,1 17.1777862,1 L1.23281819,1 Z M18.366629,1.91895967 L9.5037065,9.12187461 C9.40746325,9.20027642 9.28986054,9.23872346 9.17301168,9.23872346 C9.05314738,9.23872346 8.93529338,9.19726096 8.83930142,9.117854 L0.0658374168,1.8521171 C0.0253800729,1.97374042 0,2.09938434 0,2.23105918 L0,11.7661767 C0,11.9104159 0.0294006785,12.0468652 0.0746324915,12.1775349 L4.96394019,7.40507601 C5.17200653,7.2027893 5.5037065,7.20580475 5.70599322,7.41387109 C5.90827993,7.62093228 5.90325418,7.95162709 5.69719814,8.15491896 L0.813670059,12.9226033 C0.944339741,12.9695942 1.08556351,13 1.23281819,13 L17.1787913,13 C17.3436361,13 17.500691,12.9665787 17.6461867,12.9077774 L12.7410479,8.11873351 C12.5329815,7.91644679 12.5289609,7.58374168 12.7322528,7.37743435 C12.9345395,7.16936801 13.2652343,7.16635256 13.4733007,7.36863928 L18.351803,12.1302928 C18.3872346,12.0154542 18.4108556,11.894836 18.4108556,11.768187 L18.4108556,2.23206433 C18.4108556,2.12401055 18.392009,2.02098254 18.366629,1.91895967 Z" id="social-email"></path>
                    </g>
                </g>
            </g>
        </g>
    </g>
</svg>