<?xml version="1.0" encoding="UTF-8" standalone="no"?>
<svg width="21px" height="20px" viewBox="0 0 21 20" version="1.1" xmlns="http://www.w3.org/2000/svg" xmlns:xlink="http://www.w3.org/1999/xlink">
    <!-- Generator: Sketch 3.7.1 (28215) - http://www.bohemiancoding.com/sketch -->
    <title>social-yt</title>
    <desc>Created with Sketch.</desc>
    <defs></defs>
    <g id="Symbols" stroke="none" stroke-width="1" fill="none" fill-rule="evenodd">
        <g id="---FOOTER---" transform="translate(-839.000000, -387.000000)" fill="#7E8183">
            <g id="folow-social-icons" transform="translate(651.000000, 387.000000)">
                <g id="social-yt" transform="translate(188.461538, 0.000000)">
                    <path d="M16.4721641,14.77128 L14.5784496,14.77128 L14.5784496,15.70648 C14.5784496,15.96808 14.6099716,16.14928 14.6750107,16.25088 C14.7408478,16.35248 14.8525714,16.40168 15.0105804,16.40168 C15.1753727,16.40168 15.2890913,16.35888 15.3549284,16.27328 C15.4191695,16.18688 15.4534846,15.99888 15.4534846,15.70648 L15.4534846,15.48048 L16.4721641,15.48048 L16.4721641,15.73528 C16.4721641,16.24448 16.3488692,16.62768 16.0982892,16.88688 C15.8520983,17.14248 15.4814155,17.27048 14.9878367,17.27048 C14.5441345,17.27048 14.1942003,17.13448 13.9400292,16.86128 C13.6862571,16.59048 13.557376,16.21408 13.557376,15.73528 L13.557376,13.50488 C13.557376,13.07568 13.6982275,12.72248 13.9787334,12.45168 C14.2588404,12.18088 14.6183509,12.04608 15.0624521,12.04608 C15.5153316,12.04608 15.8640687,12.17128 16.1074665,12.42208 C16.3504652,12.67368 16.4721641,13.03408 16.4721641,13.50488 L16.4721641,14.77128 Z M13.0386594,16.10928 C13.0386594,16.46008 12.9612509,16.72928 12.805636,16.91808 C12.652016,17.10568 12.4257758,17.19808 12.1332995,17.19808 C11.9385812,17.19808 11.7658087,17.16328 11.6149819,17.09048 C11.4637561,17.01888 11.3213085,16.90728 11.1920284,16.75408 L11.1920284,17.13448 L10.1909054,17.13448 L10.1909054,10.40408 L11.1920284,10.40408 L11.1920284,12.57168 C11.3256977,12.42128 11.4681452,12.30528 11.6157799,12.22728 C11.7674048,12.14728 11.9194286,12.10888 12.0734476,12.10888 C12.3866726,12.10888 12.6252822,12.21368 12.7904735,12.42528 C12.9564628,12.63728 13.0386594,12.94688 13.0386594,13.35368 L13.0386594,16.10928 Z M9.44674661,17.13448 L8.45679597,17.13448 L8.45679597,16.59048 C8.27285109,16.79168 8.08371905,16.94528 7.8850107,17.04888 C7.68749938,17.15688 7.49637227,17.20768 7.31003332,17.20768 C7.08060099,17.20768 6.90982353,17.13448 6.79291279,16.98568 C6.67799712,16.83728 6.61934225,16.61728 6.61934225,16.32048 L6.61934225,12.16888 L7.60889387,12.16888 L7.60889387,15.97848 C7.60889387,16.09568 7.63044056,16.18048 7.66994282,16.23248 C7.7130362,16.28688 7.78126738,16.31168 7.87383834,16.31168 C7.94526162,16.31168 8.03823159,16.27728 8.14995516,16.20768 C8.26207775,16.13768 8.363826,16.04888 8.45679597,15.94048 L8.45679597,12.16888 L9.44674661,12.16888 L9.44674661,17.13448 Z M6.18441835,11.38288 L5.02967544,11.38288 L5.02967544,17.13448 L3.91403579,17.13448 L3.91403579,11.38288 L2.76009091,11.38288 L2.76009091,10.40408 L6.18441835,10.40408 L6.18441835,11.38288 Z M15.9957429,9.14008 L3.57487495,9.14008 C1.60055985,9.14008 0.000119703825,10.74608 0.000119703825,12.72488 L0.000119703825,15.60528 C0.000119703825,17.58408 1.60055985,19.18928 3.57487495,19.18928 L15.9957429,19.18928 C17.969659,19.18928 19.5704981,17.58408 19.5704981,15.60528 L19.5704981,12.72488 C19.5704981,10.74608 17.969659,9.14008 15.9957429,9.14008 L15.9957429,9.14008 Z" id="Fill-1"></path>
                    <path d="M15.0198774,12.91444 C14.8618684,12.91444 14.7493468,12.95924 14.6807166,13.05164 C14.6112884,13.13884 14.5785693,13.28844 14.5785693,13.49684 L14.5785693,13.99844 L15.4536043,13.99844 L15.4536043,13.49684 C15.4536043,13.28844 15.4180921,13.13884 15.3490629,13.05164 C15.2820288,12.95924 15.1707042,12.91444 15.0198774,12.91444" id="Fill-4"></path>
                    <path d="M11.6060839,12.89768 C11.5354587,12.89768 11.4648334,12.91288 11.3962032,12.94568 C11.327174,12.97728 11.2593418,13.02928 11.1919087,13.09728 L11.1919087,16.19088 C11.2717112,16.27088 11.3503167,16.33248 11.4265282,16.36768 C11.5031386,16.40168 11.5813451,16.42088 11.6655368,16.42088 C11.7872357,16.42088 11.8762155,16.38568 11.9328754,16.31448 C11.9891362,16.24448 12.0182641,16.13168 12.0182641,15.97288 L12.0182641,13.40808 C12.0182641,13.23968 11.984348,13.11328 11.9145208,13.02648 C11.8422995,12.94088 11.7393542,12.89768 11.6060839,12.89768" id="Fill-6"></path>
                    <polygon id="Fill-8" points="5.20121102 7.41524 6.45610613 7.41524 6.45610613 4.33924 7.9164928 4.00000004e-05 6.64124805 4.00000004e-05 5.86476923 2.96404 5.78576471 2.96404 4.97058165 4.00000004e-05 3.70690827 4.00000004e-05 5.20121102 4.47764"></polygon>
                    <path d="M9.15431016,3.15432 C9.15431016,3.03552 9.19700452,2.93952 9.28039819,2.86432 C9.36698396,2.79072 9.47711148,2.75472 9.61277581,2.75472 C9.76080954,2.75472 9.87931633,2.79072 9.97069025,2.86432 C10.0612661,2.93952 10.1067536,3.03552 10.1067536,3.15432 L10.1067536,6.13472 C10.1067536,6.28072 10.0616652,6.39632 9.97268531,6.48032 C9.88370547,6.56432 9.76360263,6.60552 9.61277581,6.60552 C9.46554011,6.60552 9.35182147,6.56592 9.27281695,6.48192 C9.19421144,6.39952 9.15431016,6.28472 9.15431016,6.13472 L9.15431016,3.15432 Z M9.61636693,7.55312 C10.1231131,7.55312 10.5205298,7.42032 10.8102131,7.15392 C11.0979013,6.88592 11.2423439,6.52112 11.2423439,6.05272 L11.2423439,3.22712 C11.2423439,2.81112 11.0947092,2.46792 10.8018338,2.20352 C10.5065644,1.93992 10.1283003,1.80712 9.66664253,1.80712 C9.16069436,1.80712 8.75649445,1.93272 8.45683587,2.18352 C8.15717729,2.43472 8.0071485,2.77072 8.0071485,3.19592 L8.0071485,6.03112 C8.0071485,6.49632 8.15358618,6.86472 8.44566351,7.14032 C8.73813986,7.41512 9.12917236,7.55312 9.61636693,7.55312 L9.61636693,7.55312 Z" id="Fill-10"></path>
                    <path d="M12.9247014,7.49492 C13.133784,7.49492 13.3488519,7.43532 13.570703,7.32012 C13.7945492,7.20332 14.008819,7.03252 14.2123155,6.80972 L14.2123155,7.41532 L15.3271571,7.41532 L15.3271571,1.94532 L14.2123155,1.94532 L14.2123155,6.09772 C14.1089712,6.21652 13.9940555,6.31412 13.8695636,6.39172 C13.7434755,6.46852 13.6397322,6.50652 13.5579346,6.50652 C13.4533933,6.50652 13.3767828,6.47812 13.3312954,6.41892 C13.2850099,6.36132 13.2594731,6.26812 13.2594731,6.13932 L13.2594731,1.94532 L12.1466265,1.94532 L12.1466265,6.51692 C12.1466265,6.84332 12.2120646,7.08652 12.3417437,7.24812 C12.4730189,7.41212 12.6657421,7.49492 12.9247014,7.49492" id="Fill-12"></path>
                </g>
            </g>
        </g>
    </g>
</svg>