<?xml version="1.0" encoding="UTF-8" standalone="no"?>
<svg width="14px" height="14px" viewBox="0 0 14 14" version="1.1" xmlns="http://www.w3.org/2000/svg" xmlns:xlink="http://www.w3.org/1999/xlink">
    <!-- Generator: Sketch 3.7.2 (28276) - http://www.bohemiancoding.com/sketch -->
    <title>mobile-menu-torso</title>
    <desc>Created with Sketch.</desc>
    <defs></defs>
    <g id="PROTO---1,2,3-Homepage,-Email,-Menu" stroke="none" stroke-width="1" fill="none" fill-rule="evenodd">
        <g id="mobile---3-Main-Nav" transform="translate(-13.000000, -522.000000)" stroke="#4E5255">
            <g id="MAIN-NAV">
                <g id="sign-in" transform="translate(13.000000, 522.000000)">
                    <path d="M0.875093333,12.7427993 C0.875093333,12.953546 1.04701333,13.125466 1.25776,13.125466 L12.74224,13.125466 C12.9529867,13.125466 13.1249067,12.953546 13.1249067,12.7427993 L13.1249067,12.022266 C12.3448267,10.445866 11.27,9.98423929 11.0323733,9.89893263 L10.2812267,9.89893263 C9.13565333,9.89893263 8.20306667,8.96634596 8.20306667,7.82095929 L8.20306667,7.13327929 L8.30592,7.01082596 C8.61802667,6.64103929 8.8536,6.19490596 9.00741333,5.68586596 C9.03504,5.51674596 9.17952,5.39205263 9.24802667,5.33287929 C9.45,5.13314596 9.48490667,4.82906596 9.35741333,4.62485263 C9.29693333,4.53749263 9.19482667,4.39525263 9.20490667,4.19402596 L9.20490667,3.78205263 C9.20490667,3.44586596 9.20565333,3.11042596 9.2036,2.77498596 C9.19184,2.23253263 9.02570667,1.76287929 8.73768,1.45879929 C8.43061333,1.13437263 8.02013333,1.00015929 7.72837333,0.945465961 C7.18442667,0.840559295 6.63170667,0.854372628 6.13237333,0.981305961 C5.7036,1.08994596 5.33306667,1.33783929 5.11653333,1.66151929 C4.92557333,1.94301263 4.81618667,2.31354596 4.79714667,2.73634596 C4.7936,3.03463929 4.7936,3.34450596 4.79434667,3.65511929 L4.79434667,4.19029263 C4.81824,4.36762596 4.7068,4.52946596 4.6536,4.60674596 C4.50912,4.86546596 4.56754667,5.18354596 4.75776,5.33959929 C4.92837333,5.45682596 4.9896,5.66103929 5.02170667,5.77042596 C5.16973333,6.23559929 5.39149333,6.63151929 5.69482667,6.99551929 L5.79618667,7.11797263 L5.79618667,7.82095929 C5.79618667,8.96634596 4.8636,9.89893263 3.71802667,9.89893263 L2.96706667,9.89893263 C2.72776,9.98498596 1.65442667,10.445866 0.875093333,12.022266 L0.875093333,12.7427993 Z" id="mobile-menu-torso"></path>
                </g>
            </g>
        </g>
    </g>
</svg>