<?xml version="1.0" encoding="UTF-8" standalone="no"?>
<svg width="154px" height="25px" viewBox="0 0 154 25" version="1.1" xmlns="http://www.w3.org/2000/svg" xmlns:xlink="http://www.w3.org/1999/xlink">
    <!-- Generator: Sketch 3.7.2 (28276) - http://www.bohemiancoding.com/sketch -->
    <title>mobile-bar-logo</title>
    <desc>Created with Sketch.</desc>
    <defs></defs>
    <g id="Symbols" stroke="none" stroke-width="1" fill="none" fill-rule="evenodd">
        <g id="---MOBILE-HEADER---" transform="translate(-116.000000, -69.000000)" fill="#101820">
            <g id="mobile-bar-logo" transform="translate(116.000000, 69.000000)">
                <path d="M152.949643,22.9955 C151.593929,22.9955 150.451786,22.3483571 148.4175,20.3683571 L139.958929,12.0576429 L147.276071,3.18692857 C148.025357,2.28335714 148.703214,1.59335714 149.631071,0.776214286 L146.418929,0.776214286 C145.989643,1.67978571 145.383214,2.6705 144.741071,3.48835714 L137.780357,12.0576429 L137.780357,6.8905 C137.780357,5.08192857 137.888214,3.35978571 138.031786,2.6705 C138.173214,1.98121429 138.495357,1.76621429 139.6025,1.63692857 L139.6025,0.689071429 L139.173214,0.732642857 C138.388214,0.818357143 137.566786,0.904785714 136.7825,0.904785714 C135.7825,0.904785714 134.783214,0.818357143 133.820357,0.646928571 L133.820357,1.63692857 C134.891071,1.76621429 135.141071,1.8955 135.318214,2.41192857 C135.425357,2.71407143 135.5325,3.35978571 135.568929,4.09192857 C135.568929,4.34978571 135.603929,4.82335714 135.639643,5.5555 C135.676786,6.24407143 135.676786,6.6755 135.676786,6.8905 L135.676786,18.5605 C135.676786,18.7326429 135.639643,19.1197857 135.639643,19.6369286 C135.603929,20.2390714 135.603929,20.5840714 135.603929,20.7562143 C135.568929,21.6597857 135.498214,22.3062143 135.354643,22.8226429 C135.211071,23.4690714 134.891071,23.6840714 133.9275,23.8133571 L133.9275,24.7612143 C134.891071,24.6740714 135.818214,24.6319286 136.7825,24.6319286 C137.673929,24.6319286 138.601786,24.6740714 139.495357,24.8033571 L139.495357,23.8562143 C138.495357,23.7276429 138.138929,23.4690714 138.031786,22.8226429 C137.888214,22.1340714 137.780357,20.4119286 137.780357,18.6033571 L137.780357,13.0483571 L146.061786,21.5740714 C146.811786,22.3483571 147.561071,23.1247857 148.346786,23.8133571 C149.131786,24.4590714 149.988214,24.8469286 150.736786,24.8469286 C151.308214,24.8469286 151.986071,24.5890714 152.664643,24.1583571 C153.128929,23.8562143 153.414643,23.5976429 154.0925,22.8662143 C153.663214,22.9955 153.414643,22.9955 152.949643,22.9955" id="Fill-1"></path>
                <path d="M39.1762143,13.5337857 C38.2762143,11.9766429 36.7590714,11.3202143 33.5640714,11.0745 C30.3697857,10.7880714 28.9362143,10.1323571 28.1990714,8.53521429 C27.9533571,7.96235714 27.7890714,7.26592857 27.7890714,6.52878571 C27.7890714,3.66092857 29.6726429,2.14521429 33.2776429,2.14521429 C34.7519286,2.14521429 35.8169286,2.39164286 36.6362143,2.88307143 C37.1283571,3.17092857 37.2919286,3.5795 37.6190714,5.58592857 L38.5619286,5.38164286 L38.8490714,1.61307143 C37.4562143,0.998071429 36.8819286,0.793785714 35.8576429,0.588785714 C35.1212143,0.425214286 34.4247857,0.3845 33.7690714,0.3845 C29.3055,0.3845 25.5769286,3.82521429 25.5769286,7.96235714 C25.5769286,9.51878571 26.1083571,10.8287857 27.0526429,11.6895 C27.9940714,12.5495 29.2233571,12.9587857 31.5983571,13.2045 C34.9155,13.5737857 36.3076429,14.2702143 37.0862143,15.9487857 C37.3740714,16.5637857 37.5376429,17.3009286 37.5376429,17.9973571 C37.5376429,21.0280714 35.2433571,22.9123571 31.5576429,22.9123571 C29.1005,22.9123571 27.6662143,22.3787857 27.0933571,21.2745 C26.8062143,20.7416429 26.7240714,20.1680714 26.7240714,19.0216429 L25.7812143,19.0216429 L25.1676429,23.3223571 C26.2312143,23.9773571 26.6833571,24.1823571 27.5840714,24.4280714 C28.5262143,24.7145 29.4683571,24.8373571 30.4105,24.8373571 C35.6126429,24.8373571 39.8726429,20.9859286 39.8726429,16.2766429 C39.8726429,15.1709286 39.6255,14.2702143 39.1762143,13.5337857" id="Fill-4"></path>
                <path d="M38.7897143,23.2333571 C38.7897143,23.9469286 39.2818571,24.4383571 39.9947143,24.4383571 C40.709,24.4383571 41.2011429,23.9469286 41.2011429,23.2333571 C41.2011429,22.4947857 40.709,22.0269286 39.9947143,22.0269286 C39.2818571,22.0269286 38.7897143,22.5190714 38.7897143,23.2333571" id="Fill-6"></path>
                <path d="M69.6319286,22.0269286 C68.9183571,22.0269286 68.4262143,22.5190714 68.4262143,23.2333571 C68.4262143,23.9469286 68.9183571,24.4383571 69.6319286,24.4383571 C70.3462143,24.4383571 70.8376429,23.9469286 70.8376429,23.2333571 C70.8376429,22.4947857 70.3462143,22.0269286 69.6319286,22.0269286" id="Fill-8"></path>
                <path d="M52.9764286,11.885 L55.9857143,4.39285714 L58.7114286,11.885 L52.9764286,11.885 Z M67.28,24.8035714 L67.28,23.8135714 C65.9714286,23.555 65.5814286,23.1242857 64.8371429,21.2728571 L56.4114286,0 L47.4885714,21.5742857 C46.9935714,22.78 46.9221429,22.9521429 46.6735714,23.21 C46.5685714,23.3392857 46.4264286,23.4685714 46.2492857,23.555 C45.9664286,23.7271429 45.7185714,23.77 45.1514286,23.8135714 L45.1514286,24.8035714 C45.6828571,24.7614286 46.0728571,24.6742857 46.0728571,24.6742857 C46.4978571,24.6321429 47.17,24.6321429 47.595,24.6321429 C48.3728571,24.6321429 48.7271429,24.7178571 49.5064286,24.7614286 L50.0735714,24.8035714 L50.0735714,23.8135714 C49.1878571,23.8135714 48.905,23.6407143 48.905,23.0814286 C48.905,22.5642857 49.1878571,21.66 49.6842857,20.3685714 L52.375,13.5221429 L59.4557143,13.5221429 L62.1471429,20.4971429 C62.6071429,21.66 62.9614286,22.4778571 62.9614286,23.0385714 C62.9614286,23.555 62.6421429,23.77 61.545,23.8135714 L61.545,24.7614286 C63.1735714,24.6321429 63.74,24.6321429 64.6964286,24.6321429 C65.4385714,24.6321429 66.0421429,24.6321429 66.9978571,24.7614286 L67.28,24.8035714 Z" id="Fill-10"></path>
                <path d="M96.3750714,11.885 L99.3843571,4.39285714 L102.110786,11.885 L96.3750714,11.885 Z M105.545786,20.4971429 C106.005071,21.66 106.358643,22.4778571 106.358643,23.0385714 C106.358643,23.555 106.040071,23.77 104.942929,23.8135714 L104.942929,24.7614286 C106.572214,24.6321429 107.137929,24.6321429 108.093643,24.6321429 C108.837929,24.6321429 109.440071,24.6321429 110.395786,24.7614286 L110.678643,24.8035714 L110.678643,23.8135714 C109.369357,23.555 108.980071,23.1242857 108.2365,21.2728571 L99.8100714,0 L90.8872143,21.5742857 C90.3915,22.78 90.3200714,22.9521429 90.0736429,23.21 C89.9665,23.3392857 89.8250714,23.4685714 89.6472143,23.555 C89.3650714,23.7271429 89.1165,23.77 88.5500714,23.8135714 L88.5500714,24.8035714 C89.0815,24.7614286 89.4715,24.6742857 89.4715,24.6742857 C89.8957857,24.6321429 90.5693571,24.6321429 90.9943571,24.6321429 C91.7722143,24.6321429 92.1265,24.7178571 92.9057857,24.7614286 L93.4715,24.8035714 L93.4715,23.8135714 C92.5865,23.8135714 92.3043571,23.6407143 92.3043571,23.0814286 C92.3043571,22.5642857 92.5865,21.66 93.0829286,20.3685714 L95.7729286,13.5221429 L102.855071,13.5221429 L105.545786,20.4971429 Z" id="Fill-12"></path>
                <path d="M115.759786,23.7679286 C115.499786,23.6322143 115.063357,23.5129286 114.932643,22.0386429 L114.872643,20.0522143 L114.8255,15.9200714 L114.766929,10.8493571 L114.704071,5.29078571 L130.951929,24.8100714 L130.673357,7.12507143 L130.669786,4.39364286 C130.669071,2.89507143 130.749071,2.38221429 131.049071,1.99792857 C131.347643,1.61435714 132.199786,1.67935714 132.199786,1.67935714 L132.199786,0.689357143 C132.199786,0.662214286 129.941214,0.854357143 129.7005,0.862214286 C129.4605,0.867928571 127.291929,0.689357143 127.291929,0.689357143 L127.291929,1.67935714 C127.8255,1.65007143 128.348357,1.81792857 128.348357,1.81792857 C129.331929,2.11007143 129.176929,4.48935714 129.176929,4.48935714 L129.354071,19.9807857 L124.4305,13.7700714 L118.451214,6.22721429 L116.671929,3.98364286 C116.671929,3.98364286 115.439071,2.36007143 115.129786,1.90435714 C114.821929,1.44792857 114.419786,0.689357143 114.419786,0.689357143 C113.549071,0.942214286 112.633357,0.850071429 112.473357,0.839357143 C112.313357,0.827928571 111.489071,0.768642857 111.489071,0.768642857 L110.649786,0.689357143 L110.649786,1.67935714 C110.649786,1.67935714 111.6705,1.79221429 112.088357,2.29078571 C112.088357,2.29078571 113.047643,3.48435714 113.086214,3.71221429 C113.124786,3.93935714 113.222643,4.75221429 113.234071,5.05792857 C113.244071,5.36221429 113.2805,7.27721429 113.2805,7.27721429 L113.389786,13.6765 L113.373357,19.6607857 L113.293357,21.8779286 C113.293357,21.8779286 113.296929,23.8115 112.0505,23.8022143 L111.437643,23.7772143 L111.4305,24.8100714 C111.4305,24.8100714 113.724786,24.6343571 113.884786,24.6336429 C114.0455,24.6322143 116.214071,24.7307857 116.819071,24.8029286 L116.838357,23.8557857 C116.838357,23.8557857 116.018357,23.9036429 115.759786,23.7679286" id="Fill-14"></path>
                <path d="M84.1292143,22.4267143 C84.1292143,22.4267143 81.2070714,23.3938571 77.3842143,22.5574286 C77.3842143,22.5574286 77.2627857,19.661 77.2477857,19.1588571 C77.2327857,18.6567143 77.1992143,16.8017143 77.1992143,16.8017143 L77.1992143,9.97957143 C77.1992143,9.97957143 77.2713571,3.95957143 77.2713571,3.64814286 C77.2713571,3.33671429 77.3785,1.72028571 77.3785,1.72028571 L79.5806429,1.721 C82.9320714,1.68528571 84.2242143,2.846 84.2242143,2.846 C85.2299286,3.44457143 85.4335,5.09671429 85.4335,5.09671429 C85.6727857,7.27457143 84.6677857,8.651 84.6677857,8.651 C84.1170714,9.60814286 82.8363571,10.1945714 82.3813571,10.386 C81.9263571,10.5781429 80.3349286,10.8767143 80.3349286,10.8767143 L78.5992143,12.2174286 C78.5992143,12.2174286 80.7056429,12.1095714 81.1370714,12.1217143 C81.5677857,12.1338571 83.4463571,12.2295714 84.9070714,12.9838571 C84.9070714,12.9838571 86.8099286,13.9052857 87.3006429,15.7002857 C87.3006429,15.7002857 87.7556429,16.8017143 87.4085,18.8124286 C87.4085,18.8124286 87.1563571,21.6367143 84.1292143,22.4267143 M89.7342143,16.7895714 C90.1813571,14.3317143 87.8892143,12.1817143 86.9963571,11.591 C86.1027857,11.0002857 83.9170714,10.5995714 83.9170714,10.5995714 C86.6513571,9.00671429 87.4799286,6.05385714 87.4799286,6.05385714 C88.3777857,3.12171429 86.4149286,1.63742857 86.4149286,1.63742857 C84.8470714,0.201 81.4956429,0.293142857 81.4956429,0.293142857 L80.1156429,0.327428571 C80.1156429,0.327428571 76.8406429,0.460285714 75.9670714,0.494571429 C75.0927857,0.528857143 72.6592143,0.293142857 72.6592143,0.293142857 L72.6592143,1.10171429 C73.3770714,1.101 74.0656429,1.42742857 74.0656429,1.42742857 C74.8985,1.60814286 74.8670714,5.061 74.8670714,5.061 L74.8742143,11.6352857 L74.8742143,17.8588571 C74.8742143,17.8588571 74.7942143,21.031 74.6820714,22.4345714 C74.5699286,23.8381429 74.1363571,24.4095714 74.1363571,24.4095714 C75.2470714,23.9545714 77.3506429,24.2581429 77.3506429,24.2581429 C79.8563571,24.4974286 81.4356429,24.2581429 81.4356429,24.2581429 C84.1006429,23.8267143 86.2870714,22.1517143 86.2870714,22.1517143 C89.5427857,19.8374286 89.7342143,16.7895714 89.7342143,16.7895714" id="Fill-16"></path>
                <path d="M3.17285714,0.565357143 L3.17285714,1.3675 C4.20857143,1.50107143 4.61,1.6675 4.77714286,2.13535714 C4.94357143,2.60321429 4.97785714,2.80392857 5.04428571,4.13964286 C5.07785714,4.90821429 5.11071429,5.80964286 5.11071429,6.57821429 L5.11071429,18.5903571 C5.11071429,21.9639286 4.07571429,23.7682143 2.10428571,23.7682143 C1.40285714,23.7682143 0.868571429,23.6010714 0,23.0667857 L0.100714286,23.9017857 C1.03571429,24.5703571 1.70357143,24.8375 2.57214286,24.8375 C3.50714286,24.8375 4.37571429,24.5703571 5.07785714,24.0360714 C6.58071429,22.8996429 7.24928571,21.0960714 7.24928571,17.9553571 L7.24928571,6.57821429 C7.24928571,4.6075 7.38214286,2.63678571 7.58285714,2.13535714 C7.78357143,1.6675 8.18428571,1.50107143 9.21928571,1.3675 L9.21928571,0.565357143 C7.98357143,0.698928571 7.08214286,0.7325 6.14714286,0.7325 C5.21142857,0.7325 4.34285714,0.698928571 3.17285714,0.565357143" id="Fill-18"></path>
                <path d="M17.1232857,12.6721429 C13.7311429,12.6721429 11.624,10.4985714 11.624,6.99857143 C11.624,3.89 13.4968571,1.95857143 16.5111429,1.95857143 C18.2204286,1.95857143 19.6832857,2.49214286 20.6354286,3.46428571 C21.449,4.27785714 21.879,5.575 21.879,7.21642857 C21.879,10.48 19.9675714,12.6721429 17.1232857,12.6721429 M17.4304286,0.436428571 C16.1025714,0.436428571 14.7247143,0.728571429 13.554,1.25714286 C10.8661429,2.42785714 9.44471429,4.58714286 9.44471429,7.50071429 C9.44471429,11.62 12.064,14.2821429 16.1168571,14.2821429 C20.7175714,14.2821429 24.0575714,11.0528571 24.0575714,6.60357143 C24.0575714,2.74214286 21.5797143,0.436428571 17.4304286,0.436428571" id="Fill-20"></path>
            </g>
        </g>
    </g>
</svg>