<?xml version="1.0" encoding="UTF-8" standalone="no"?>
<svg width="20px" height="28px" viewBox="0 0 20 28" version="1.1" xmlns="http://www.w3.org/2000/svg" xmlns:xlink="http://www.w3.org/1999/xlink">
    <!-- Generator: Sketch 3.7.2 (28276) - http://www.bohemiancoding.com/sketch -->
    <title>mobile-bar-pin</title>
    <desc>Created with Sketch.</desc>
    <defs>
        <path d="M85.6538462,68 C80.8322198,68 77,71.8752 77,76.75 C77,81.6248 85.6538462,93 85.6538462,93 C85.6538462,93 94.3076923,81.6248 94.3076923,76.75 C94.3076923,71.8752 90.4754725,68 85.6538462,68 L85.6538462,68 Z M85.6538462,79.6071429 C83.5523956,79.6071429 81.9450549,77.9823429 81.9450549,75.8571429 C81.9450549,73.7319429 83.5523956,72.1071429 85.6538462,72.1071429 C87.7552967,72.1071429 89.3626374,73.7319429 89.3626374,75.8571429 C89.3626374,77.9823429 87.7552967,79.6071429 85.6538462,79.6071429 L85.6538462,79.6071429 Z" id="path-1"></path>
    </defs>
    <g id="Symbols" stroke="none" stroke-width="1" fill="none" fill-rule="evenodd">
        <g id="---MOBILE-HEADER---" transform="translate(-76.000000, -67.000000)" stroke-width="1.5" stroke="#4E5255">
            <g id="mobile-bar-pin">
                <use xlink:href="#path-1"></use>
                <use xlink:href="#path-1"></use>
            </g>
        </g>
    </g>
</svg>