<?xml version="1.0" encoding="UTF-8" standalone="no"?>
<svg width="12px" height="16px" viewBox="0 0 12 16" version="1.1" xmlns="http://www.w3.org/2000/svg" xmlns:xlink="http://www.w3.org/1999/xlink">
    <!-- Generator: Sketch 3.7.2 (28276) - http://www.bohemiancoding.com/sketch -->
    <title>mobile-menu-pin</title>
    <desc>Created with Sketch.</desc>
    <defs>
        <path d="M5.19230769,2 C2.29933187,2 0,4.32512 0,7.25 C0,10.17488 5.19230769,17 5.19230769,17 C5.19230769,17 10.3846154,10.17488 10.3846154,7.25 C10.3846154,4.32512 8.08528352,2 5.19230769,2 L5.19230769,2 Z M5.19230769,8.96428571 C3.93143736,8.96428571 2.96703297,7.98940571 2.96703297,6.71428571 C2.96703297,5.43916571 3.93143736,4.46428571 5.19230769,4.46428571 C6.45317802,4.46428571 7.41758242,5.43916571 7.41758242,6.71428571 C7.41758242,7.98940571 6.45317802,8.96428571 5.19230769,8.96428571 L5.19230769,8.96428571 Z" id="path-1"></path>
    </defs>
    <g id="PROTO---1,2,3-Homepage,-Email,-Menu" stroke="none" stroke-width="1" fill="none" fill-rule="evenodd">
        <g id="mobile---3-Main-Nav" transform="translate(-13.000000, -564.000000)" stroke="#4E5255">
            <g id="MAIN-NAV">
                <g id="find-nearest-store" transform="translate(14.000000, 563.000000)">
                    <g id="Group-10">
                        <g id="mobile-menu-pin">
                            <use xlink:href="#path-1"></use>
                            <use xlink:href="#path-1"></use>
                        </g>
                    </g>
                </g>
            </g>
        </g>
    </g>
</svg>