<?xml version="1.0" encoding="UTF-8" standalone="no"?>
<svg width="36px" height="27px" viewBox="0 0 36 27" version="1.1" xmlns="http://www.w3.org/2000/svg" xmlns:xlink="http://www.w3.org/1999/xlink">
    <!-- Generator: Sketch 3.7.2 (28276) - http://www.bohemiancoding.com/sketch -->
    <title>mobile-bar-menu</title>
    <desc>Created with Sketch.</desc>
    <defs></defs>
    <g id="Symbols" stroke="none" stroke-width="1" fill="none" fill-rule="evenodd">
        <g id="---MOBILE-HEADER---" transform="translate(-17.000000, -69.000000)" fill="#4E5255">
            <g id="mobile-bar-menu" transform="translate(17.000000, 69.000000)">
                <rect id="Rectangle-30-Copy-2" x="0" y="7" width="36" height="2"></rect>
                <rect id="Rectangle-30-Copy-3" x="0" y="0" width="36" height="2"></rect>
                <path d="M0.638627291,26 L0.638627291,13.75 L3.05854917,13.75 L4.79487729,23.1289062 L6.53120542,13.75 L8.95112729,13.75 L8.95112729,26 L7.20112729,26 L7.20112729,16.3339844 L5.45112729,26 L4.13862729,26 L2.38862729,16.3339844 L2.38862729,26 L0.638627291,26 Z M11.9738547,26 L11.9738547,13.75 L16.7863547,13.75 L16.7863547,15.0625 L13.7238547,15.0625 L13.7238547,19 L15.9113547,19 L15.9113547,20.3125 L13.7238547,20.3125 L13.7238547,24.6875 L16.7863547,24.6875 L16.7863547,26 L11.9738547,26 Z M19.1323242,26 L19.1323242,13.75 L20.4448242,13.75 L23.5073242,21.3242188 L23.5073242,13.75 L25.2573242,13.75 L25.2573242,26 L24.0131836,26 L20.8823242,17.8515625 L20.8823242,26 L19.1323242,26 Z M31.6843485,26.1298828 C31.1511427,26.1298828 30.6817463,26.0592455 30.2761453,25.9179688 C29.8705444,25.776692 29.5367261,25.5795911 29.2746805,25.3266602 C29.0126349,25.0737292 28.7995837,24.7558613 28.6355203,24.3730469 C28.471457,23.9902325 28.3552472,23.5766624 28.2868875,23.1323242 C28.2185278,22.6879861 28.1843485,22.1855497 28.1843485,21.625 L28.1843485,13.75 L29.9343485,13.75 L29.9343485,21.625 C29.9343485,22.0032571 29.9423236,22.3199857 29.9582742,22.5751953 C29.9742248,22.8304049 30.0163794,23.1027004 30.0847391,23.3920898 C30.1530988,23.6814793 30.2476617,23.9127596 30.3684305,24.0859375 C30.4891993,24.2591154 30.6600961,24.4026687 30.8811258,24.5166016 C31.1021556,24.6305344 31.3698938,24.6875 31.6843485,24.6875 C31.9988032,24.6875 32.2665414,24.6305344 32.4875711,24.5166016 C32.7086009,24.4026687 32.8794976,24.2591154 33.0002664,24.0859375 C33.1210353,23.9127596 33.2155981,23.6814793 33.2839578,23.3920898 C33.3523176,23.1027004 33.3944721,22.8304049 33.4104227,22.5751953 C33.4263733,22.3199857 33.4343485,22.0032571 33.4343485,21.625 L33.4343485,13.75 L35.1843485,13.75 L35.1843485,21.625 C35.1843485,22.1855497 35.1501691,22.6879861 35.0818094,23.1323242 C35.0134497,23.5766624 34.8972399,23.9902325 34.7331766,24.3730469 C34.5691133,24.7558613 34.356062,25.0737292 34.0940164,25.3266602 C33.8319709,25.5795911 33.4981526,25.776692 33.0925516,25.9179688 C32.6869506,26.0592455 32.2175543,26.1298828 31.6843485,26.1298828 L31.6843485,26.1298828 Z" id="MENU"></path>
            </g>
        </g>
    </g>
</svg>